<svg width="21" height="21" viewBox="0 0 21 21" fill="none" xmlns="http://www.w3.org/2000/svg">
    <path d="M10.5 21C16.299 21 21 16.299 21 10.5C21 4.70101 16.299 0 10.5 0C4.70101 0 0 4.70101 0 10.5C0 16.299 4.70101 21 10.5 21Z" fill="url(#paint0___linear)"/>
    <path d="M10.5002 20.1776C15.8449 20.1776 20.1776 15.8449 20.1776 10.5002C20.1776 5.15548 15.8449 0.822754 10.5002 0.822754C5.15548 0.822754 0.822754 5.15548 0.822754 10.5002C0.822754 15.8449 5.15548 20.1776 10.5002 20.1776Z" fill="white"/>
    <path d="M10.5 18.9677C15.1766 18.9677 18.9677 15.1766 18.9677 10.5C18.9677 5.82336 15.1766 2.03223 10.5 2.03223C5.82336 2.03223 2.03223 5.82336 2.03223 10.5C2.03223 15.1766 5.82336 18.9677 10.5 18.9677Z" fill="url(#paint1___linear)"/>
    <path d="M8.23058 14.7616C8.16726 14.7616 8.10395 14.7244 8.07788 14.6611C8.04064 14.5754 8.07788 14.4786 8.16354 14.4413L9.29946 13.946C9.38512 13.9088 9.48195 13.946 9.51919 14.0317C9.55643 14.1173 9.51919 14.2142 9.43353 14.2514L8.29761 14.7467C8.27527 14.7579 8.25292 14.7616 8.23058 14.7616Z" fill="white"/>
    <path d="M10.711 14.8249C10.6812 14.8249 10.6514 14.8175 10.6216 14.7988L9.81712 14.2961C9.73891 14.2476 9.71656 14.1434 9.76498 14.0689C9.81339 13.9907 9.91768 13.9683 9.99216 14.0167L10.7966 14.5195C10.8748 14.5679 10.8972 14.6722 10.8488 14.7467C10.8227 14.7988 10.7668 14.8249 10.711 14.8249Z" fill="white"/>
    <path d="M16.0704 9.24214L16.9828 8.84364C17.1728 8.76171 17.1802 8.49356 16.994 8.40045L12.752 6.28503C12.6887 6.25524 12.6179 6.25151 12.5509 6.27759L11.3032 6.77292L10.1487 6.1733C10.0854 6.13979 10.0146 6.13606 9.94757 6.16213L4.37599 8.29244C4.18605 8.3632 4.15998 8.62391 4.33502 8.72819L5.13947 9.2347L3.91789 9.72258C3.73168 9.79707 3.70933 10.0503 3.87693 10.1583L7.83588 12.7169C7.90664 12.7616 7.9923 12.7691 8.06679 12.7355L9.631 12.054L10.9755 12.8957C11.0462 12.9404 11.1319 12.9441 11.2064 12.9106L17.1094 10.2328C17.2957 10.1471 17.3031 9.88645 17.1206 9.78962L16.0704 9.24214ZM9.6608 11.0447L6.86011 9.3427L11.2548 7.5662L14.1672 9.11179L9.6608 11.0447Z" fill="white"/>
    <path d="M7.53425 13.6443C7.50445 13.6443 7.47093 13.6368 7.44486 13.6182L3.80248 11.2719C3.72427 11.2235 3.70192 11.1192 3.75406 11.041C3.8062 10.9628 3.90676 10.9404 3.98497 10.9926L7.63108 13.3426C7.70929 13.391 7.73163 13.4953 7.67949 13.5735C7.64225 13.6182 7.59011 13.6443 7.53425 13.6443Z" fill="white"/>
    <path d="M7.53425 14.613C7.50445 14.613 7.47093 14.6056 7.44486 14.5869L3.80248 12.2294C3.72427 12.181 3.70192 12.0767 3.75406 11.9985C3.80248 11.9203 3.90676 11.898 3.98497 11.9501L7.62735 14.3039C7.70556 14.3523 7.72791 14.4566 7.67577 14.5348C7.64225 14.5869 7.59011 14.613 7.53425 14.613Z" fill="white"/>
    <path d="M8.24181 13.7897C8.17849 13.7897 8.11518 13.7525 8.08911 13.6892C8.05187 13.6035 8.08911 13.5067 8.17477 13.4695L9.29951 12.9778C9.38517 12.9406 9.48201 12.9778 9.51925 13.0635C9.55649 13.1492 9.51925 13.246 9.43359 13.2832L8.30884 13.7748C8.2865 13.786 8.26415 13.7897 8.24181 13.7897Z" fill="white"/>
    <path d="M10.711 13.8566C10.6812 13.8566 10.6514 13.8492 10.6216 13.8306L9.81712 13.3278C9.73891 13.2794 9.71656 13.1751 9.76498 13.1006C9.81339 13.0224 9.91768 13 9.99216 13.0484L10.7966 13.5512C10.8748 13.5996 10.8972 13.7039 10.8488 13.7784C10.8227 13.8306 10.7668 13.8566 10.711 13.8566Z" fill="white"/>
    <path d="M11.4448 13.9351C11.3814 13.9351 11.3219 13.8979 11.2921 13.8383C11.2548 13.7563 11.2921 13.6558 11.374 13.6185L17.0536 11.0413C17.1355 11.0041 17.2361 11.0413 17.2733 11.1232C17.3106 11.2052 17.2733 11.3057 17.1914 11.343L11.5118 13.9202C11.4932 13.9314 11.4708 13.9351 11.4448 13.9351Z" fill="white"/>
    <path d="M11.4448 14.9034C11.3814 14.9034 11.3219 14.8661 11.2921 14.8065C11.2548 14.7246 11.2921 14.624 11.374 14.5868L17.0536 12.0096C17.1355 11.9723 17.2361 12.0096 17.2733 12.0915C17.3106 12.1734 17.2733 12.274 17.1914 12.3112L11.5118 14.8885C11.4932 14.8996 11.4708 14.9034 11.4448 14.9034Z" fill="white"/>
    <defs>
        <linearGradient id="paint0___linear" x1="0" y1="10.5" x2="21" y2="10.5" gradientUnits="userSpaceOnUse">
            <stop stop-color="#0575E6"/>
            <stop offset="1" stop-color="#021B79"/>
        </linearGradient>
        <linearGradient id="paint1___linear" x1="11.1825" y1="18.3225" x2="14.2625" y2="4.86497" gradientUnits="userSpaceOnUse">
            <stop stop-color="#1C2260"/>
            <stop offset="1" stop-color="#3F4EAE"/>
        </linearGradient>
    </defs>
</svg>